<mxfile host="app.diagrams.net" modified="2024-01-07T09:16:27.985Z" agent="Mozilla/5.0 (Macintosh; Intel Mac OS X 10_15_7) AppleWebKit/537.36 (KHTML, like Gecko) Chrome/116.0.0.0 Whale/3.22.205.18 Safari/537.36" etag="OtHxQwWJLQUI15apEEOl" version="22.1.17" type="github">
  <diagram id="6oojn5KAw8aXJEHvEB7P" name="페이지-1">
    <mxGraphModel dx="538" dy="1011" grid="0" gridSize="10" guides="1" tooltips="1" connect="1" arrows="1" fold="1" page="0" pageScale="1" pageWidth="1169" pageHeight="827" math="0" shadow="0">
      <root>
        <mxCell id="0" />
        <mxCell id="1" parent="0" />
      </root>
    </mxGraphModel>
  </diagram>
</mxfile>
